<svg width="108" height="33" viewBox="0 0 108 33" fill="none" xmlns="http://www.w3.org/2000/svg">
<path d="M15.3005 20.8002H6.9826V21.826L15.3005 21.7994V20.8002Z" fill="#F73A3A"/>
<path d="M106.105 18.2854L97.8685 19.4412L97.9842 20.2633L106.238 19.2342L106.105 18.2854Z" fill="#F73A3A"/>
<path d="M97.5283 17.2999L93.3895 20.0651L93.6358 20.4558L97.933 17.9129L98.1505 18.2428L98.8411 17.9934L99.2982 18.6859L100.883 18.1138L100.793 17.2886L101.467 17.045L101.273 15.2723L97.264 16.8999L97.5283 17.2999Z" fill="#F73A3A"/>
<path d="M24.5854 16.5264L23.8704 16.4578L23.7536 15.6363L22.0769 15.4754L21.8049 16.2596L21.0751 16.1896L20.9463 16.5631L16.1523 15.1667L16.0107 15.6064L20.7054 17.2573L20.2879 18.4669L24.9234 18.8967L24.5854 16.5264Z" fill="#F73A3A"/>
<path d="M40.896 17.9152L34.6795 17.3187L35.3483 10.3485L32.6156 1.40591L31.799 1.32754L34.5317 10.2701L33.8628 17.2403L32.4191 17.1018L33.0879 10.1316L30.4909 4.83428L29.6742 4.75591L32.2713 10.0532L31.6025 17.0234L27.9609 16.674L27.7227 19.1557L40.6618 20.3556L40.896 17.9152Z" fill="#F73A3A"/>
<path d="M66.5329 22.7333L66.6833 21.1657L65.6365 21.0652L65.5354 20.3586L57.7725 19.6137L57.8206 19.1116L65.4618 19.8448L65.2943 18.6721L56.9646 17.8728L57.0128 17.3708L65.2206 18.1584L64.9607 16.3333L61.9345 16.0429L61.3352 11.872L59.6469 11.71L59.7881 10.2377L58.7056 10.1338L59.0083 6.97945L58.3484 6.91613L58.0457 10.0705L57.1507 9.9846L57.4534 6.83025L56.7945 6.76703L56.4919 9.92138L55.4083 9.8174L55.267 11.2897L54.4631 11.2126L55.1481 4.07345L57.1352 4.26413L57.7209 1.93654L55.3747 1.71141L55.4425 1.00491L54.5634 0.920549L54.4956 1.62705L52.1494 1.40192L52.2808 3.79832L54.2001 3.98249C52.7996 6.53945 50.9229 8.80494 48.6713 10.6568L46.5782 10.456L43.074 20.5839L66.5329 22.7333ZM53.5859 13.0012L53.4591 14.3231L50.4752 14.0368L50.6018 12.7181L53.5859 13.0012ZM54.2135 14.3923L54.3401 13.0736L57.3228 13.3598L57.196 14.6817L54.2135 14.3923ZM56.0929 17.7892L54.4839 17.6348L54.5321 17.1327L56.141 17.2871L56.0929 17.7892ZM60.22 14.9719L57.9491 14.754L58.0756 13.4353L60.3466 13.6532L60.22 14.9719ZM51.4549 10.9239C52.3728 10.103 53.1847 9.17074 53.8719 8.14884L53.586 11.1284L51.4549 10.9239ZM54.2345 4.37061L53.9156 7.69337C53.1581 8.88901 52.2303 9.96782 51.1615 10.8958L48.971 10.6856C51.0868 8.90839 52.8687 6.76805 54.2329 4.36512L54.2345 4.37061ZM47.5818 12.4304L49.8495 12.6481L49.7232 13.9647L47.4544 13.747L47.5818 12.4304ZM51.8645 16.8821L53.4734 17.0365L53.4252 17.5386L51.8152 17.3841L51.8645 16.8821Z" fill="#F73A3A"/>
<path d="M84.1154 21.8185L83.3187 19.4311L87.5604 17.9914L92.0806 18.8231L91.8359 18.0301L87.2289 16.9682L82.9004 18.1776L82.6753 17.5026L81.3596 17.6144L80.8868 16.198L77.865 16.4548L77.6381 17.9307L76.3509 18.0401L76.2141 18.9306L80.0787 18.6022L80.1148 19.0263L76.1473 19.3635L75.6136 22.8347L76.8028 22.7294L84.1154 21.8185Z" fill="#F73A3A"/>
<path d="M40.1617 16.3235L38.701 16.1834L38.9132 13.9717L38.4938 13.9315L38.2816 16.1431L37.8558 16.1023L38.3343 11.1155L37.9138 11.0751L37.4353 16.0619L35.4524 15.8717L35.359 16.8451L40.0683 17.2969L40.1617 16.3235Z" fill="#F73A3A"/>
<path d="M60.6215 9.91189C60.8154 9.93049 61.0104 9.89116 61.1819 9.7989C61.3534 9.70664 61.4937 9.56558 61.5851 9.39356C61.6764 9.22154 61.7147 9.02629 61.695 8.83252C61.6754 8.63876 61.5987 8.45518 61.4747 8.305C61.3506 8.15483 61.1849 8.04481 60.9983 7.98887C60.8118 7.93293 60.6128 7.93357 60.4266 7.99073C60.2404 8.04788 60.0754 8.15897 59.9524 8.30995C59.8293 8.46093 59.7538 8.64502 59.7354 8.83891C59.7108 9.09867 59.7903 9.35757 59.9564 9.55876C60.1226 9.75995 60.3618 9.88697 60.6215 9.91189Z" fill="#F73A3A"/>
<path d="M68.545 23.5811L67.9262 24.5697L68.6492 25.4462L67.6575 27.369L68.3422 28.6455L67.4273 29.7684L65.8277 29.6149L67.3122 30.9681L66.1094 32.2075C46.2392 29.9458 13.1236 25.5146 5.09083 24.4337C4.53162 24.358 3.99999 24.1445 3.54373 23.8125C3.08747 23.4804 2.72089 23.0402 2.47695 22.5313C1.8186 21.1597 0.82142 17.3034 0.82142 17.3034L68.545 23.5811Z" fill="#F73A3A"/>
<path d="M68.6537 23.7578L68.9721 25.1878L71.4373 25.803L68.7265 27.2215L69.2199 28.3921L68.1422 30.0872L70.2379 31.134L68.2661 31.6894L68.0974 32.6858C70.6343 32.5284 72.9074 32.3741 74.8242 32.2259C93.6501 30.7699 102.06 28.7705 102.06 28.7705C102.06 28.7705 102.205 25.4903 104.907 24.1746C107.609 22.8589 107.21 19.4606 107.21 19.4606L74.3695 23.2971L68.6537 23.7578Z" fill="#F73A3A"/>
</svg>
